<svg xmlns="http://www.w3.org/2000/svg" viewBox="0 0 640 480"><rect width="640" height="480" fill="#141316"/><path d="M0 370h640v110H0z" fill="#f4b8ef" opacity=".28"/><path d="M84 280h152v110H84zM102 250h116l18 30H84z" fill="#ff7ad9" opacity=".78"/><path d="M315 123h190v267H315z" fill="#f4b8ef" opacity=".82"/><path d="M337 151h146v116H337z" fill="#141316"/><path d="M365 288h90v62h-90z" fill="#ff38ca" opacity=".76"/><path d="M370 303h80m-80 15h65m-65 15h70" stroke="#141316" stroke-width="5"/><ellipse cx="403" cy="205" rx="31" ry="43" fill="#ff7ad9"/><path d="M403 163c32 27 30 57 0 84m0-84c-32 27-30 57 0 84" fill="none" stroke="#141316" stroke-width="4"/><path d="M80 390h430M265 145h31m-16-15v31" stroke="#ff66fa" stroke-width="4"/></svg>