<svg xmlns="http://www.w3.org/2000/svg" viewBox="0 0 640 480"><rect width="640" height="480" fill="#141316"/><path d="M0 385h640v95H0z" fill="#f4b8ef" opacity=".22"/><path d="M313 99q-34 53 0 65 34-12 0-65" fill="#ff38ca"/><path d="M280 161h65v207h-65zM190 211h52v157h-52zm189-17h57v174h-57z" fill="#f4b8ef" opacity=".84"/><path d="M312 144v20m-96 27v20m193-39v20" stroke="#ff7ad9" stroke-width="5"/><path d="M265 373h96m-190 11h96m89 0h104" stroke="#ff7ad9" stroke-width="5"/><path d="M140 164v205m275-238v235" stroke="#ff38ca" stroke-width="3" opacity=".8"/><circle cx="141" cy="158" r="11" fill="#ff7ad9"/><circle cx="414" cy="125" r="11" fill="#ff7ad9"/></svg>